<svg width="58" height="58" viewBox="0 0 58 58" fill="none" xmlns="http://www.w3.org/2000/svg">
<path d="M9.96703 9.96684L9.96508 9.9688C6.04879 13.9014 3.78038 19.18 3.62259 24.7278C3.46479 30.2756 5.4295 35.6746 9.11593 39.8235C12.8024 43.9723 17.9328 46.5585 23.4606 47.0544C28.6183 47.517 33.7594 46.1275 37.9711 43.1561L50.1247 55.3096L51.0086 56.1935L51.8924 55.3096L55.3096 51.8925L56.1935 51.0086L55.3096 50.1247L43.1575 37.9726C46.1402 33.7616 47.5387 28.6161 47.0806 23.452C46.5895 17.9169 44.0025 12.7786 39.8486 9.08767C35.6946 5.39675 30.2877 3.43213 24.7333 3.59556C19.1789 3.75898 13.8968 6.0381 9.96703 9.96684ZM30.8978 11.9536C32.6572 12.6966 34.252 13.7809 35.59 15.1437C38.2603 17.8636 39.7486 21.5278 39.7311 25.3394C39.7136 29.1509 38.1917 32.8013 35.4965 35.4965C32.8013 38.1917 29.1509 39.7136 25.3393 39.7311C21.5278 39.7486 17.8635 38.2603 15.1437 35.59C13.7809 34.252 12.6966 32.6572 11.9536 30.8978C11.2106 29.1384 10.8235 27.2492 10.8147 25.3394C10.8059 23.4295 11.1756 21.5368 11.9025 19.7707C12.6293 18.0045 13.6988 16.3998 15.0493 15.0493C16.3998 13.6989 18.0045 12.6293 19.7706 11.9025C21.5368 11.1757 23.4295 10.806 25.3393 10.8148C27.2492 10.8235 29.1384 11.2106 30.8978 11.9536Z" stroke="#8CBFFF" stroke-width="2.5"/>
</svg>
