<svg width="58" height="58" viewBox="0 0 58 58" fill="none" xmlns="http://www.w3.org/2000/svg">
<path d="M38.0625 39.0231C38.0625 38.4975 38.4975 38.0625 39.0231 38.0625C39.5488 38.0625 39.9838 38.4794 39.9838 39.0231V40.9444C39.9838 41.47 39.5488 41.905 39.0231 41.905C38.4975 41.905 38.0625 41.47 38.0625 40.9444V39.0231Z" fill="#8CBFFF"/>
<path fill-rule="evenodd" clip-rule="evenodd" d="M29 1.8125C13.9852 1.8125 1.8125 13.9852 1.8125 29C1.8125 44.0148 13.9852 56.1875 29 56.1875C44.0148 56.1875 56.1875 44.0148 56.1875 29C56.1875 13.9852 44.0148 1.8125 29 1.8125ZM21.7953 6.55944C12.3069 9.60444 5.4375 18.5002 5.4375 29C5.4375 42.0138 15.9863 52.5625 29 52.5625C42.0138 52.5625 52.5625 42.0138 52.5625 29C52.5625 27.1875 52.3577 25.4203 51.9698 23.7238L49.5175 27.405C49.3 27.7313 48.9375 27.9306 48.5388 27.9306H47.9225C47.6144 27.9306 47.3606 27.6769 47.3606 27.3688V26.39C47.3606 24.215 45.9106 20.6806 43.7356 20.6806H40.9263C39.9656 20.6806 39.6031 21.8769 40.165 22.3663L40.5819 22.7106C41.3794 23.3813 41.2163 24.6319 40.2919 25.1031L38.2075 26.1544H37.5731C36.9206 26.1544 36.3769 25.6106 36.3769 24.9581V23.4175C36.3769 22.9281 35.9781 22.5113 35.4706 22.5113H35.4598C34.9341 22.5113 32.8606 22.5112 32.8606 25.0487V25.955C32.8606 27.7856 36.0144 29.2537 37.8088 29.5437C38.0988 29.58 38.3344 29.8338 38.3344 30.1238V30.7763C38.3344 31.175 38.2438 31.5738 38.0625 31.9363L34.6006 37.1019H33.9844C33.3863 37.1019 32.8969 37.5731 32.8787 38.1713L32.77 42.5575L29.6888 45.6388C29.3263 46.0194 28.8369 46.2188 28.3113 46.2188H27.4231C26.3356 46.2188 25.4656 45.3306 25.4656 44.2613V40.1831C25.4656 39.1681 24.94 38.9144 24.5594 38.9144H23.925C23.2725 38.9144 22.7288 38.3706 22.7288 37.7181V34.6006C22.7288 32.915 21.3694 31.5556 19.6838 31.5556H14.5C12.8869 31.5556 10.875 28.4925 10.875 26.8794V25.5925C10.875 24.7769 11.1831 23.9975 11.7269 23.4175L13.6662 21.3694C14.1012 20.9163 14.7175 20.6625 15.3519 20.6806H17.2731C17.835 20.6806 18.3606 20.4631 18.7594 20.0644L19.3394 19.4844C19.7381 19.0856 20.2819 18.8681 20.8438 18.8681H22.7288C23.1456 18.8681 23.6169 19.0856 23.5988 19.575V20.0825C23.5444 21.1338 25.5925 20.6625 25.5925 20.6625C25.5925 20.6625 27.3325 19.0856 28.13 18.9044C28.9456 18.705 30.5769 19.1581 31.5375 19.7381C32.0631 20.0463 32.7156 19.6838 32.7156 19.0856C32.7156 17.9438 31.7731 17.0194 30.6312 17.0194H29.9606C29.7251 17.0194 29.4992 16.9258 29.3326 16.7592C29.1661 16.5927 29.0725 16.3668 29.0725 16.1312V14.8263C29.0725 14.6868 29.0171 14.5532 28.9185 14.4546C28.82 14.356 28.6863 14.3006 28.5469 14.3006H27.8763C27.4956 14.3006 27.1331 14.4819 26.9156 14.8081L25.7919 16.4756C25.5744 16.82 25.1938 17.0194 24.7769 17.0194H24.5231C23.9431 17.0194 23.3994 16.8019 22.9825 16.385L22.185 15.7687C21.5325 15.225 20.6987 15.2069 20.5356 15.2069H18.7775C18.415 15.2069 18.1431 15.4969 18.1431 15.8413L18.0706 16.385C18.0706 17.0375 17.6175 17.9256 16.965 17.9256H15.9138C15.2613 17.9256 14.7356 17.4 14.7356 16.7656V14.5906C14.7356 13.92 15.2794 13.3944 15.9319 13.3944C16.2944 13.3944 16.5663 13.1044 16.5663 12.76V12.1981C16.5663 10.7663 17.5994 10.5488 18.3606 10.73C18.6851 10.8152 19.0222 10.9584 19.3629 11.1052C19.9013 11.3354 20.4504 11.571 20.9706 11.5819H23.8344C24.9037 11.5819 25.6106 10.8569 25.6106 9.80562C25.6106 9.54281 25.6233 9.26913 25.636 8.99906C25.6922 7.79738 25.7448 6.66638 24.65 6.8875L24.1425 7.395C23.8162 7.73938 23.6169 8.1925 23.6169 8.68188V8.93562C23.6169 9.38875 23.2544 9.7875 22.8012 9.82375C22.3662 9.84188 21.8044 9.76938 21.8044 9.2075C21.8044 8.73625 21.7899 8.46438 21.7772 8.21606C21.7591 7.83544 21.7409 7.52188 21.7863 6.65188C21.7878 6.62094 21.7908 6.59009 21.7953 6.55944ZM33.0509 5.78369C32.1294 5.62411 31.1991 5.5194 30.2651 5.47012L30.9031 6.10812H32.7338L33.0491 5.78369H33.0509Z" fill="#8CBFFF"/>
</svg>
