<svg width="39" height="39" viewBox="0 0 39 39" fill="none" xmlns="http://www.w3.org/2000/svg">
<path d="M25.9725 19.7485C25.9725 16.3161 23.1799 13.5235 19.7476 13.5235C16.3152 13.5235 13.5226 16.3161 13.5226 19.7485C13.5226 23.1809 16.3152 25.9735 19.7476 25.9735C23.1799 25.9735 25.9725 23.1809 25.9725 19.7485ZM19.7476 20.847C19.1419 20.847 18.6491 20.3542 18.6491 19.7485C18.6491 19.1428 19.1419 18.65 19.7476 18.65C20.3534 18.65 20.8461 19.1428 20.8461 19.7485C20.8461 20.3542 20.3534 20.847 19.7476 20.847Z" fill="#004AAD"/>
<path d="M17.4046 23.8912C18.0967 24.2841 18.8965 24.5087 19.7476 24.5087C20.5987 24.5087 21.3985 24.2841 22.0906 23.8912M21.4963 21.6207C22.1785 21.9186 22.7814 22.386 23.2386 22.9815C24.0259 22.132 24.5079 20.9956 24.5079 19.7485C24.5079 17.1236 22.3723 14.9882 19.7476 14.9882C17.1227 14.9882 14.9873 17.1238 14.9873 19.7485C14.9873 20.9956 15.4696 22.1317 16.2569 22.9813C16.7141 22.386 17.317 21.9183 17.9989 21.6207C17.498 21.1525 17.1844 20.4866 17.1844 19.7485C17.1844 18.3351 18.3342 17.1853 19.7476 17.1853M25.9725 19.7485C25.9725 16.3161 23.1799 13.5235 19.7476 13.5235C16.3152 13.5235 13.5226 16.3161 13.5226 19.7485C13.5226 23.1809 16.3152 25.9735 19.7476 25.9735C23.1799 25.9735 25.9725 23.1809 25.9725 19.7485ZM19.7476 20.847C19.1419 20.847 18.6491 20.3542 18.6491 19.7485C18.6491 19.1428 19.1419 18.65 19.7476 18.65C20.3534 18.65 20.8461 19.1428 20.8461 19.7485C20.8461 20.3542 20.3534 20.847 19.7476 20.847Z" stroke="white"/>
<path d="M30.0004 19.7485C30.0004 14.0951 25.401 9.49601 19.7479 9.49601C14.0947 9.49601 9.49536 14.0954 9.49536 19.7485C9.49536 25.4017 14.0947 30.0011 19.7479 30.0011C25.401 30.0011 30.0004 25.4017 30.0004 19.7485ZM10.9591 19.7485C10.9591 14.9028 14.9014 10.9604 19.7472 10.9604C24.593 10.9604 28.5354 14.9028 28.5354 19.7485C28.5354 24.5943 24.593 28.5367 19.7472 28.5367C14.9014 28.5367 10.9591 24.5943 10.9591 19.7485Z" fill="white" stroke="white"/>
<path d="M5.36549 12.2903C5.48084 12.357 5.60665 12.3886 5.73088 12.3886C5.98406 12.3886 6.23018 12.2573 6.36567 12.0222C8.69352 7.99035 12.7714 5.20391 17.3547 4.48211C17.7251 5.44309 18.6581 6.12652 19.7477 6.12652C21.1611 6.12652 22.3109 4.97673 22.3109 3.56332C22.3109 2.14992 21.1611 1.00012 19.7477 1.00012C18.5215 1.00012 17.4936 1.86561 17.2428 3.01748C14.8229 3.38104 12.4796 4.27689 10.4372 5.62334C8.2522 7.06373 6.40565 9.02297 5.09709 11.2893C4.89492 11.6398 5.01497 12.0876 5.36519 12.2898L5.36549 12.2903ZM19.748 2.46494C20.3537 2.46494 20.8465 2.95771 20.8465 3.56345C20.8465 4.16919 20.3537 4.66195 19.748 4.66195C19.1422 4.66195 18.6495 4.16919 18.6495 3.56345C18.6495 2.95771 19.1422 2.46494 19.748 2.46494Z" fill="white" stroke="white"/>
<path d="M12.0214 33.1306C7.98929 30.8028 5.20245 26.7249 4.48199 22.1416C5.4427 21.7715 6.1264 20.8382 6.1264 19.7486C6.1264 18.3352 4.97661 17.1854 3.5632 17.1854C2.14979 17.1854 1 18.3352 1 19.7486C1 20.9748 1.86549 22.0027 3.01736 22.2532C3.38092 24.6731 4.27677 27.0164 5.62321 29.0588C7.0636 31.2438 9.02285 33.0904 11.2892 34.3989C11.4046 34.4656 11.5304 34.4973 11.6546 34.4973C11.9078 34.4973 12.1539 34.366 12.2894 34.1308C12.4916 33.7806 12.3715 33.3328 12.0213 33.1304L12.0214 33.1306ZM2.46456 19.7485C2.46456 19.1427 2.95733 18.65 3.56307 18.65C4.1688 18.65 4.66157 19.1428 4.66157 19.7485C4.66157 20.3542 4.1688 20.847 3.56307 20.847C2.95733 20.847 2.46456 20.3542 2.46456 19.7485Z" fill="white" stroke="white"/>
<path d="M34.13 27.2071C33.7796 27.0049 33.3318 27.125 33.1296 27.4752C30.8018 31.5073 26.7239 34.2942 22.1406 35.0153C21.7705 34.0546 20.8372 33.3709 19.7476 33.3709C18.3342 33.3709 17.1844 34.5207 17.1844 35.9341C17.1844 37.3475 18.3342 38.4973 19.7476 38.4973C20.9738 38.4973 22.0017 37.6318 22.2525 36.4799C24.6724 36.1164 27.0157 35.2205 29.0581 33.8741C31.2431 32.4337 33.0897 30.4744 34.3982 28.2081C34.6004 27.8578 34.4803 27.4098 34.1301 27.2076L34.13 27.2071ZM19.7476 37.0325C19.1418 37.0325 18.6491 36.5397 18.6491 35.934C18.6491 35.3282 19.1418 34.8355 19.7476 34.8355C20.3533 34.8355 20.8461 35.3282 20.8461 35.934C20.8461 36.5397 20.3533 37.0325 19.7476 37.0325Z" fill="white" stroke="white"/>
<path d="M36.4785 17.2436C36.1149 14.8237 35.2191 12.4805 33.8726 10.4381C32.4322 8.25305 30.473 6.4065 28.2066 5.09795C27.8561 4.89577 27.4084 5.01582 27.2062 5.36604C27.0041 5.71626 27.1241 6.16404 27.4743 6.36645C31.5064 8.6943 34.2933 12.7721 35.0144 17.3555C34.0537 17.7256 33.37 18.6588 33.37 19.7484C33.37 21.1618 34.5198 22.3116 35.9332 22.3116C37.3466 22.3116 38.4964 21.1618 38.4964 19.7484C38.4964 18.5223 37.6309 17.4944 36.479 17.2436L36.4785 17.2436ZM35.9326 20.8468C35.3269 20.8468 34.8341 20.354 34.8341 19.7482C34.8341 19.1425 35.3269 18.6497 35.9326 18.6497C36.5384 18.6497 37.0311 19.1425 37.0311 19.7482C37.0311 20.354 36.5384 20.8468 35.9326 20.8468Z" fill="white" stroke="white"/>
</svg>
