<svg width="49" height="59" viewBox="0 0 49 59" fill="none" xmlns="http://www.w3.org/2000/svg">
<path d="M32.2309 41.8095C31.4563 43.0695 29.5458 43.6668 27.8816 42.8902C26.2174 42.1137 25.7292 40.3971 26.5038 39.1371C27.2783 37.8771 29.1889 37.2799 30.8531 38.0564C32.5172 38.833 33.0055 40.5495 32.2309 41.8095Z" fill="white" stroke="#8CBFFF" stroke-width="2.5"/>
<path d="M44.6829 38.3829L35.6086 27.6075C35.4135 27.3758 35.1031 27.2489 34.7717 27.2653L22.2689 27.8852C21.8919 27.9039 21.5422 28.1052 21.3536 28.412L13.1324 41.7858C12.9253 42.1228 12.9489 42.5267 13.1926 42.8161L22.2158 53.5309C22.4292 53.7843 22.779 53.9109 23.1404 53.8654L37.1078 52.1093C37.468 52.064 37.7888 51.8542 37.9564 51.5544L44.764 39.3776C44.9488 39.047 44.9174 38.6614 44.6829 38.3829Z" stroke="#8CBFFF" stroke-width="2.5"/>
<path d="M16.1673 12.0891L10.2651 8.92005C9.75583 8.64663 9.59249 7.99555 9.90996 7.50462L13.3371 2.20492C13.6118 1.78011 14.1569 1.62074 14.6102 1.8327L37.4862 12.5296C37.9993 12.7695 38.2027 13.3909 37.9334 13.8957L34.7209 19.9196C34.4697 20.3905 33.8966 20.5885 33.4153 20.3706L27.3954 17.6445M16.1673 12.0891L27.3954 17.6445M16.1673 12.0891L11.2201 19.9303M27.3954 17.6445L24.3529 22.5709M11.2201 19.9303L24.3529 22.5709M11.2201 19.9303L7.8836 25.2186M24.3529 22.5709L21.6485 26.9499M7.8836 25.2186L21.6485 26.9499M7.8836 25.2186L4.60462 30.4157M21.6485 26.9499L18.268 32.4236M4.60462 30.4157L1.89268 34.714C1.58467 35.2022 1.74681 35.8429 2.24762 36.1165L11.6869 41.2733C12.1536 41.5282 12.7436 41.3686 13.0263 40.911L18.268 32.4236M4.60462 30.4157L18.268 32.4236" stroke="#8CBFFF" stroke-width="2.5"/>
</svg>
